<svg width="964" height="465" viewBox="0 0 964 465" fill="none" xmlns="http://www.w3.org/2000/svg">
<g filter="url(#filter0_f_81_773)">
<path d="M482.5 491.26C683.808 491.26 847 428.285 847 350.6C847 272.915 683.808 209.939 482.5 209.939C281.192 209.939 118 272.915 118 350.6C118 428.285 281.192 491.26 482.5 491.26Z" fill="#3F31DF"/>
</g>
<g filter="url(#filter1_f_81_773)">
<path d="M482.5 491.26C613.593 491.26 719.865 428.285 719.865 350.6C719.865 272.915 613.593 209.939 482.5 209.939C351.407 209.939 245.135 272.915 245.135 350.6C245.135 428.285 351.407 491.26 482.5 491.26Z" fill="#1B92FF"/>
</g>
<g filter="url(#filter2_f_81_773)">
<path d="M482.5 473.678C613.593 473.678 719.865 439.162 719.865 396.585C719.865 354.008 613.593 319.492 482.5 319.492C351.407 319.492 245.135 354.008 245.135 396.585C245.135 439.162 351.407 473.678 482.5 473.678Z" fill="#EBF7FD"/>
</g>
<defs>
<filter id="filter0_f_81_773" x="-91.6382" y="0.301239" width="1148.28" height="700.597" filterUnits="userSpaceOnUse" color-interpolation-filters="sRGB">
<feFlood flood-opacity="0" result="BackgroundImageFix"/>
<feBlend mode="normal" in="SourceGraphic" in2="BackgroundImageFix" result="shape"/>
<feGaussianBlur stdDeviation="104.819" result="effect1_foregroundBlur_81_773"/>
</filter>
<filter id="filter1_f_81_773" x="35.4973" y="0.301239" width="894.006" height="700.597" filterUnits="userSpaceOnUse" color-interpolation-filters="sRGB">
<feFlood flood-opacity="0" result="BackgroundImageFix"/>
<feBlend mode="normal" in="SourceGraphic" in2="BackgroundImageFix" result="shape"/>
<feGaussianBlur stdDeviation="104.819" result="effect1_foregroundBlur_81_773"/>
</filter>
<filter id="filter2_f_81_773" x="150.46" y="224.817" width="664.08" height="343.536" filterUnits="userSpaceOnUse" color-interpolation-filters="sRGB">
<feFlood flood-opacity="0" result="BackgroundImageFix"/>
<feBlend mode="normal" in="SourceGraphic" in2="BackgroundImageFix" result="shape"/>
<feGaussianBlur stdDeviation="47.3377" result="effect1_foregroundBlur_81_773"/>
</filter>
</defs>
</svg>
